# xmcd
#
# Track frame offsets:
#	182
#	15445
#	27165
#	42915
#	56972
#	68857
#	82185
#	95337
#	109207
#	121790
#	133022
#	146005
#	158355
#	171875
#	184505
#	196082
#	206350
#	220657
#	234770
#	247587
#	260330
#	273650
#	287617
#	298667
#	310190
#	323112
#
# Disc length: 4486 seconds
#
# Revision: 1
# Processed by: cddbd v1.5.2PL0 Copyright (c) Steve Scherf et al.
# Submitted via: audiograbber 1.83.01
#
DISCID=6811841a
DTITLE=Various Artist - Adam Blew His Hat - Roots of Rock'n'Roll Vol. 5
DYEAR=1997
DGENRE=Jump Blues
TTITLE0=Lionel Hampton - Adam Blew His Hat
TTITLE1=Anisteen Allen with Lucky Millinder - There's Good Blues Tonight
TTITLE2=Four Jumps of Jive - It's Just the Blues
TTITLE3=Trevor Bacon with Lucky Millinder - Big Fat Mama
TTITLE4=Larry Clinton - I Want to Rock
TTITLE5=Cozy Cole and his All Stars - Flat Rock
TTITLE6=The Three Barons - Milkshake Stand
TTITLE7=Buddy Johnson - Fine Brown Frame
TTITLE8=The Red Caps - Boogie Woogie Ball
TTITLE9=Amos Milburn - My Baby's Boogying
TTITLE10=Big Maceo - Texas Stomp
TTITLE11=Memphis Slim - Old Taylor
TTITLE12=Amos Milburn - Down the Road Apiece
TTITLE13=Jack McVea - Groovin' Boogie
TTITLE14=Louis Jordan - Jack, You're Dead
TTITLE15=Champion Jack Dupree - Fift Avenue Woman
TTITLE16=Buddy Johnson - Boogie Woogie's Mother in Law
TTITLE17=Ella Johnson - That's the Stuff You Gotta Watch
TTITLE18=Julia Lee with Jay McShann's Kansas City Stompers - Come On Over to My
TTITLE18=House
TTITLE19=Albinia Jones - What's the Matter With Me
TTITLE20=Miss Rhapsody - The Night Before Judgement Day
TTITLE21=Dinah Washington - My Lovin' Papa
TTITLE22=Claude Trenier with Big Jim Wynne - Buzz Buzz Buzz
TTITLE23=Saunders King - 2 AM Hop
TTITLE24=Memphis Slim - Diggin' My Potatoes No. 2
TTITLE25=Arthur Crudup - I Want My Lovin'
EXTD=
EXTT0=
EXTT1=
EXTT2=
EXTT3=
EXTT4=
EXTT5=
EXTT6=
EXTT7=
EXTT8=
EXTT9=
EXTT10=
EXTT11=
EXTT12=
EXTT13=
EXTT14=
EXTT15=
EXTT16=
EXTT17=
EXTT18=
EXTT19=
EXTT20=
EXTT21=
EXTT22=
EXTT23=
EXTT24=
EXTT25=
PLAYORDER=
